<?xml version="1.0" encoding="UTF-8"?>
<svg xmlns="http://www.w3.org/2000/svg" xmlns:xlink="http://www.w3.org/1999/xlink" width="18px" height="12px" viewBox="0 0 18 12" version="1.1">
<g id="surface1">
<rect x="0" y="0" width="18" height="12" style="fill:rgb(0%,20%,60%);fill-opacity:1;stroke:none;"/>
<path style=" stroke:none;fill-rule:nonzero;fill:rgb(100%,80%,0%);fill-opacity:1;" d="M 9 1.332031 L 8.792969 1.96875 L 9.109375 2.070312 Z M 9 1.332031 "/>
<path style=" stroke:none;fill-rule:nonzero;fill:rgb(100%,80%,0%);fill-opacity:1;" d="M 9 1.332031 L 9.207031 1.96875 L 8.890625 2.070312 Z M 9 1.332031 "/>
<path style=" stroke:none;fill-rule:nonzero;fill:rgb(100%,80%,0%);fill-opacity:1;" d="M 9.632812 1.792969 L 8.96875 1.792969 L 8.96875 2.128906 Z M 9.632812 1.792969 "/>
<path style=" stroke:none;fill-rule:nonzero;fill:rgb(100%,80%,0%);fill-opacity:1;" d="M 9.632812 1.792969 L 9.09375 2.1875 L 8.898438 1.917969 Z M 9.632812 1.792969 "/>
<path style=" stroke:none;fill-rule:nonzero;fill:rgb(100%,80%,0%);fill-opacity:1;" d="M 9.390625 2.539062 L 9.1875 1.90625 L 8.867188 2.007812 Z M 9.390625 2.539062 "/>
<path style=" stroke:none;fill-rule:nonzero;fill:rgb(100%,80%,0%);fill-opacity:1;" d="M 9.390625 2.539062 L 8.851562 2.148438 L 9.046875 1.878906 Z M 9.390625 2.539062 "/>
<path style=" stroke:none;fill-rule:nonzero;fill:rgb(100%,80%,0%);fill-opacity:1;" d="M 8.367188 1.792969 L 9.03125 1.792969 L 9.03125 2.128906 Z M 8.367188 1.792969 "/>
<path style=" stroke:none;fill-rule:nonzero;fill:rgb(100%,80%,0%);fill-opacity:1;" d="M 8.367188 1.792969 L 8.90625 2.1875 L 9.101562 1.917969 Z M 8.367188 1.792969 "/>
<path style=" stroke:none;fill-rule:nonzero;fill:rgb(100%,80%,0%);fill-opacity:1;" d="M 8.609375 2.539062 L 8.8125 1.90625 L 9.132812 2.007812 Z M 8.609375 2.539062 "/>
<path style=" stroke:none;fill-rule:nonzero;fill:rgb(100%,80%,0%);fill-opacity:1;" d="M 8.609375 2.539062 L 9.148438 2.148438 L 8.953125 1.878906 Z M 8.609375 2.539062 "/>
<path style=" stroke:none;fill-rule:nonzero;fill:rgb(100%,80%,0%);fill-opacity:1;" d="M 9 9.332031 L 8.792969 9.96875 L 9.109375 10.070312 Z M 9 9.332031 "/>
<path style=" stroke:none;fill-rule:nonzero;fill:rgb(100%,80%,0%);fill-opacity:1;" d="M 9 9.332031 L 9.207031 9.96875 L 8.890625 10.070312 Z M 9 9.332031 "/>
<path style=" stroke:none;fill-rule:nonzero;fill:rgb(100%,80%,0%);fill-opacity:1;" d="M 9.632812 9.792969 L 8.96875 9.792969 L 8.96875 10.128906 Z M 9.632812 9.792969 "/>
<path style=" stroke:none;fill-rule:nonzero;fill:rgb(100%,80%,0%);fill-opacity:1;" d="M 9.632812 9.792969 L 9.09375 10.1875 L 8.898438 9.917969 Z M 9.632812 9.792969 "/>
<path style=" stroke:none;fill-rule:nonzero;fill:rgb(100%,80%,0%);fill-opacity:1;" d="M 9.390625 10.539062 L 9.1875 9.90625 L 8.867188 10.007812 Z M 9.390625 10.539062 "/>
<path style=" stroke:none;fill-rule:nonzero;fill:rgb(100%,80%,0%);fill-opacity:1;" d="M 9.390625 10.539062 L 8.851562 10.148438 L 9.046875 9.878906 Z M 9.390625 10.539062 "/>
<path style=" stroke:none;fill-rule:nonzero;fill:rgb(100%,80%,0%);fill-opacity:1;" d="M 8.367188 9.792969 L 9.03125 9.792969 L 9.03125 10.128906 Z M 8.367188 9.792969 "/>
<path style=" stroke:none;fill-rule:nonzero;fill:rgb(100%,80%,0%);fill-opacity:1;" d="M 8.367188 9.792969 L 8.90625 10.1875 L 9.101562 9.917969 Z M 8.367188 9.792969 "/>
<path style=" stroke:none;fill-rule:nonzero;fill:rgb(100%,80%,0%);fill-opacity:1;" d="M 8.609375 10.539062 L 8.8125 9.90625 L 9.132812 10.007812 Z M 8.609375 10.539062 "/>
<path style=" stroke:none;fill-rule:nonzero;fill:rgb(100%,80%,0%);fill-opacity:1;" d="M 8.609375 10.539062 L 9.148438 10.148438 L 8.953125 9.878906 Z M 8.609375 10.539062 "/>
<path style=" stroke:none;fill-rule:nonzero;fill:rgb(100%,80%,0%);fill-opacity:1;" d="M 5 5.332031 L 4.792969 5.96875 L 5.109375 6.070312 Z M 5 5.332031 "/>
<path style=" stroke:none;fill-rule:nonzero;fill:rgb(100%,80%,0%);fill-opacity:1;" d="M 5 5.332031 L 5.207031 5.96875 L 4.890625 6.070312 Z M 5 5.332031 "/>
<path style=" stroke:none;fill-rule:nonzero;fill:rgb(100%,80%,0%);fill-opacity:1;" d="M 5.632812 5.792969 L 4.96875 5.792969 L 4.96875 6.128906 Z M 5.632812 5.792969 "/>
<path style=" stroke:none;fill-rule:nonzero;fill:rgb(100%,80%,0%);fill-opacity:1;" d="M 5.632812 5.792969 L 5.09375 6.1875 L 4.898438 5.917969 Z M 5.632812 5.792969 "/>
<path style=" stroke:none;fill-rule:nonzero;fill:rgb(100%,80%,0%);fill-opacity:1;" d="M 5.390625 6.539062 L 5.1875 5.90625 L 4.867188 6.007812 Z M 5.390625 6.539062 "/>
<path style=" stroke:none;fill-rule:nonzero;fill:rgb(100%,80%,0%);fill-opacity:1;" d="M 5.390625 6.539062 L 4.851562 6.148438 L 5.046875 5.878906 Z M 5.390625 6.539062 "/>
<path style=" stroke:none;fill-rule:nonzero;fill:rgb(100%,80%,0%);fill-opacity:1;" d="M 4.367188 5.792969 L 5.03125 5.792969 L 5.03125 6.128906 Z M 4.367188 5.792969 "/>
<path style=" stroke:none;fill-rule:nonzero;fill:rgb(100%,80%,0%);fill-opacity:1;" d="M 4.367188 5.792969 L 4.90625 6.1875 L 5.101562 5.917969 Z M 4.367188 5.792969 "/>
<path style=" stroke:none;fill-rule:nonzero;fill:rgb(100%,80%,0%);fill-opacity:1;" d="M 4.609375 6.539062 L 4.8125 5.90625 L 5.132812 6.007812 Z M 4.609375 6.539062 "/>
<path style=" stroke:none;fill-rule:nonzero;fill:rgb(100%,80%,0%);fill-opacity:1;" d="M 4.609375 6.539062 L 5.148438 6.148438 L 4.953125 5.878906 Z M 4.609375 6.539062 "/>
<path style=" stroke:none;fill-rule:nonzero;fill:rgb(100%,80%,0%);fill-opacity:1;" d="M 6.609375 3.074219 L 7.148438 2.683594 L 6.953125 2.414062 Z M 6.609375 3.074219 "/>
<path style=" stroke:none;fill-rule:nonzero;fill:rgb(100%,80%,0%);fill-opacity:1;" d="M 6.609375 3.074219 L 6.8125 2.441406 L 7.132812 2.542969 Z M 6.609375 3.074219 "/>
<path style=" stroke:none;fill-rule:nonzero;fill:rgb(100%,80%,0%);fill-opacity:1;" d="M 6.367188 2.328125 L 6.90625 2.722656 L 7.101562 2.453125 Z M 6.367188 2.328125 "/>
<path style=" stroke:none;fill-rule:nonzero;fill:rgb(100%,80%,0%);fill-opacity:1;" d="M 6.367188 2.328125 L 7.03125 2.328125 L 7.03125 2.664062 Z M 6.367188 2.328125 "/>
<path style=" stroke:none;fill-rule:nonzero;fill:rgb(100%,80%,0%);fill-opacity:1;" d="M 7 1.871094 L 6.792969 2.503906 L 7.109375 2.605469 Z M 7 1.871094 "/>
<path style=" stroke:none;fill-rule:nonzero;fill:rgb(100%,80%,0%);fill-opacity:1;" d="M 7 1.871094 L 7.207031 2.503906 L 6.890625 2.605469 Z M 7 1.871094 "/>
<path style=" stroke:none;fill-rule:nonzero;fill:rgb(100%,80%,0%);fill-opacity:1;" d="M 7.390625 3.074219 L 6.851562 2.683594 L 7.046875 2.414062 Z M 7.390625 3.074219 "/>
<path style=" stroke:none;fill-rule:nonzero;fill:rgb(100%,80%,0%);fill-opacity:1;" d="M 7.390625 3.074219 L 7.1875 2.441406 L 6.867188 2.542969 Z M 7.390625 3.074219 "/>
<path style=" stroke:none;fill-rule:nonzero;fill:rgb(100%,80%,0%);fill-opacity:1;" d="M 7.632812 2.328125 L 7.09375 2.722656 L 6.898438 2.453125 Z M 7.632812 2.328125 "/>
<path style=" stroke:none;fill-rule:nonzero;fill:rgb(100%,80%,0%);fill-opacity:1;" d="M 7.632812 2.328125 L 6.96875 2.328125 L 6.96875 2.664062 Z M 7.632812 2.328125 "/>
<path style=" stroke:none;fill-rule:nonzero;fill:rgb(100%,80%,0%);fill-opacity:1;" d="M 5.929688 4.539062 L 5.722656 3.90625 L 5.40625 4.007812 Z M 5.929688 4.539062 "/>
<path style=" stroke:none;fill-rule:nonzero;fill:rgb(100%,80%,0%);fill-opacity:1;" d="M 5.929688 4.539062 L 5.386719 4.148438 L 5.585938 3.878906 Z M 5.929688 4.539062 "/>
<path style=" stroke:none;fill-rule:nonzero;fill:rgb(100%,80%,0%);fill-opacity:1;" d="M 5.144531 4.539062 L 5.683594 4.148438 L 5.488281 3.878906 Z M 5.144531 4.539062 "/>
<path style=" stroke:none;fill-rule:nonzero;fill:rgb(100%,80%,0%);fill-opacity:1;" d="M 5.144531 4.539062 L 5.351562 3.90625 L 5.667969 4.007812 Z M 5.144531 4.539062 "/>
<path style=" stroke:none;fill-rule:nonzero;fill:rgb(100%,80%,0%);fill-opacity:1;" d="M 4.902344 3.792969 L 5.441406 4.1875 L 5.636719 3.917969 Z M 4.902344 3.792969 "/>
<path style=" stroke:none;fill-rule:nonzero;fill:rgb(100%,80%,0%);fill-opacity:1;" d="M 4.902344 3.792969 L 5.570312 3.792969 L 5.570312 4.128906 Z M 4.902344 3.792969 "/>
<path style=" stroke:none;fill-rule:nonzero;fill:rgb(100%,80%,0%);fill-opacity:1;" d="M 6.171875 3.792969 L 5.628906 4.1875 L 5.433594 3.917969 Z M 6.171875 3.792969 "/>
<path style=" stroke:none;fill-rule:nonzero;fill:rgb(100%,80%,0%);fill-opacity:1;" d="M 6.171875 3.792969 L 5.503906 3.792969 L 5.503906 4.128906 Z M 6.171875 3.792969 "/>
<path style=" stroke:none;fill-rule:nonzero;fill:rgb(100%,80%,0%);fill-opacity:1;" d="M 5.535156 3.332031 L 5.742188 3.96875 L 5.425781 4.070312 Z M 5.535156 3.332031 "/>
<path style=" stroke:none;fill-rule:nonzero;fill:rgb(100%,80%,0%);fill-opacity:1;" d="M 5.535156 3.332031 L 5.328125 3.96875 L 5.648438 4.070312 Z M 5.535156 3.332031 "/>
<path style=" stroke:none;fill-rule:nonzero;fill:rgb(100%,80%,0%);fill-opacity:1;" d="M 6.171875 7.792969 L 5.503906 7.792969 L 5.503906 8.128906 Z M 6.171875 7.792969 "/>
<path style=" stroke:none;fill-rule:nonzero;fill:rgb(100%,80%,0%);fill-opacity:1;" d="M 6.171875 7.792969 L 5.628906 8.1875 L 5.433594 7.917969 Z M 6.171875 7.792969 "/>
<path style=" stroke:none;fill-rule:nonzero;fill:rgb(100%,80%,0%);fill-opacity:1;" d="M 5.929688 8.539062 L 5.722656 7.90625 L 5.40625 8.007812 Z M 5.929688 8.539062 "/>
<path style=" stroke:none;fill-rule:nonzero;fill:rgb(100%,80%,0%);fill-opacity:1;" d="M 5.929688 8.539062 L 5.386719 8.148438 L 5.585938 7.878906 Z M 5.929688 8.539062 "/>
<path style=" stroke:none;fill-rule:nonzero;fill:rgb(100%,80%,0%);fill-opacity:1;" d="M 5.144531 8.539062 L 5.683594 8.148438 L 5.488281 7.878906 Z M 5.144531 8.539062 "/>
<path style=" stroke:none;fill-rule:nonzero;fill:rgb(100%,80%,0%);fill-opacity:1;" d="M 5.144531 8.539062 L 5.351562 7.90625 L 5.667969 8.007812 Z M 5.144531 8.539062 "/>
<path style=" stroke:none;fill-rule:nonzero;fill:rgb(100%,80%,0%);fill-opacity:1;" d="M 5.535156 7.332031 L 5.742188 7.96875 L 5.425781 8.070312 Z M 5.535156 7.332031 "/>
<path style=" stroke:none;fill-rule:nonzero;fill:rgb(100%,80%,0%);fill-opacity:1;" d="M 5.535156 7.332031 L 5.328125 7.96875 L 5.648438 8.070312 Z M 5.535156 7.332031 "/>
<path style=" stroke:none;fill-rule:nonzero;fill:rgb(100%,80%,0%);fill-opacity:1;" d="M 4.902344 7.792969 L 5.570312 7.792969 L 5.570312 8.128906 Z M 4.902344 7.792969 "/>
<path style=" stroke:none;fill-rule:nonzero;fill:rgb(100%,80%,0%);fill-opacity:1;" d="M 4.902344 7.792969 L 5.441406 8.1875 L 5.636719 7.917969 Z M 4.902344 7.792969 "/>
<path style=" stroke:none;fill-rule:nonzero;fill:rgb(100%,80%,0%);fill-opacity:1;" d="M 7.632812 9.257812 L 6.96875 9.257812 L 6.96875 9.589844 Z M 7.632812 9.257812 "/>
<path style=" stroke:none;fill-rule:nonzero;fill:rgb(100%,80%,0%);fill-opacity:1;" d="M 7.632812 9.257812 L 7.09375 9.648438 L 6.898438 9.378906 Z M 7.632812 9.257812 "/>
<path style=" stroke:none;fill-rule:nonzero;fill:rgb(100%,80%,0%);fill-opacity:1;" d="M 7.390625 10.003906 L 7.1875 9.371094 L 6.867188 9.472656 Z M 7.390625 10.003906 "/>
<path style=" stroke:none;fill-rule:nonzero;fill:rgb(100%,80%,0%);fill-opacity:1;" d="M 7.390625 10.003906 L 6.851562 9.613281 L 7.046875 9.34375 Z M 7.390625 10.003906 "/>
<path style=" stroke:none;fill-rule:nonzero;fill:rgb(100%,80%,0%);fill-opacity:1;" d="M 6.609375 10.003906 L 7.148438 9.613281 L 6.953125 9.34375 Z M 6.609375 10.003906 "/>
<path style=" stroke:none;fill-rule:nonzero;fill:rgb(100%,80%,0%);fill-opacity:1;" d="M 6.609375 10.003906 L 6.8125 9.371094 L 7.132812 9.472656 Z M 6.609375 10.003906 "/>
<path style=" stroke:none;fill-rule:nonzero;fill:rgb(100%,80%,0%);fill-opacity:1;" d="M 7 8.796875 L 7.207031 9.429688 L 6.890625 9.535156 Z M 7 8.796875 "/>
<path style=" stroke:none;fill-rule:nonzero;fill:rgb(100%,80%,0%);fill-opacity:1;" d="M 7 8.796875 L 6.792969 9.429688 L 7.109375 9.535156 Z M 7 8.796875 "/>
<path style=" stroke:none;fill-rule:nonzero;fill:rgb(100%,80%,0%);fill-opacity:1;" d="M 6.367188 9.257812 L 7.03125 9.257812 L 7.03125 9.589844 Z M 6.367188 9.257812 "/>
<path style=" stroke:none;fill-rule:nonzero;fill:rgb(100%,80%,0%);fill-opacity:1;" d="M 6.367188 9.257812 L 6.90625 9.648438 L 7.101562 9.378906 Z M 6.367188 9.257812 "/>
<path style=" stroke:none;fill-rule:nonzero;fill:rgb(100%,80%,0%);fill-opacity:1;" d="M 13 5.332031 L 13.207031 5.96875 L 12.890625 6.070312 Z M 13 5.332031 "/>
<path style=" stroke:none;fill-rule:nonzero;fill:rgb(100%,80%,0%);fill-opacity:1;" d="M 13 5.332031 L 12.792969 5.96875 L 13.109375 6.070312 Z M 13 5.332031 "/>
<path style=" stroke:none;fill-rule:nonzero;fill:rgb(100%,80%,0%);fill-opacity:1;" d="M 12.367188 5.792969 L 13.03125 5.792969 L 13.03125 6.128906 Z M 12.367188 5.792969 "/>
<path style=" stroke:none;fill-rule:nonzero;fill:rgb(100%,80%,0%);fill-opacity:1;" d="M 12.367188 5.792969 L 12.90625 6.1875 L 13.101562 5.917969 Z M 12.367188 5.792969 "/>
<path style=" stroke:none;fill-rule:nonzero;fill:rgb(100%,80%,0%);fill-opacity:1;" d="M 12.609375 6.539062 L 12.8125 5.90625 L 13.132812 6.007812 Z M 12.609375 6.539062 "/>
<path style=" stroke:none;fill-rule:nonzero;fill:rgb(100%,80%,0%);fill-opacity:1;" d="M 12.609375 6.539062 L 13.148438 6.148438 L 12.953125 5.878906 Z M 12.609375 6.539062 "/>
<path style=" stroke:none;fill-rule:nonzero;fill:rgb(100%,80%,0%);fill-opacity:1;" d="M 13.632812 5.792969 L 12.96875 5.792969 L 12.96875 6.128906 Z M 13.632812 5.792969 "/>
<path style=" stroke:none;fill-rule:nonzero;fill:rgb(100%,80%,0%);fill-opacity:1;" d="M 13.632812 5.792969 L 13.09375 6.1875 L 12.898438 5.917969 Z M 13.632812 5.792969 "/>
<path style=" stroke:none;fill-rule:nonzero;fill:rgb(100%,80%,0%);fill-opacity:1;" d="M 13.390625 6.539062 L 13.1875 5.90625 L 12.867188 6.007812 Z M 13.390625 6.539062 "/>
<path style=" stroke:none;fill-rule:nonzero;fill:rgb(100%,80%,0%);fill-opacity:1;" d="M 13.390625 6.539062 L 12.851562 6.148438 L 13.046875 5.878906 Z M 13.390625 6.539062 "/>
<path style=" stroke:none;fill-rule:nonzero;fill:rgb(100%,80%,0%);fill-opacity:1;" d="M 11.390625 3.074219 L 10.851562 2.683594 L 11.046875 2.414062 Z M 11.390625 3.074219 "/>
<path style=" stroke:none;fill-rule:nonzero;fill:rgb(100%,80%,0%);fill-opacity:1;" d="M 11.390625 3.074219 L 11.1875 2.441406 L 10.867188 2.542969 Z M 11.390625 3.074219 "/>
<path style=" stroke:none;fill-rule:nonzero;fill:rgb(100%,80%,0%);fill-opacity:1;" d="M 11.632812 2.328125 L 11.09375 2.722656 L 10.898438 2.453125 Z M 11.632812 2.328125 "/>
<path style=" stroke:none;fill-rule:nonzero;fill:rgb(100%,80%,0%);fill-opacity:1;" d="M 11.632812 2.328125 L 10.96875 2.328125 L 10.96875 2.664062 Z M 11.632812 2.328125 "/>
<path style=" stroke:none;fill-rule:nonzero;fill:rgb(100%,80%,0%);fill-opacity:1;" d="M 11 1.871094 L 11.207031 2.503906 L 10.890625 2.605469 Z M 11 1.871094 "/>
<path style=" stroke:none;fill-rule:nonzero;fill:rgb(100%,80%,0%);fill-opacity:1;" d="M 11 1.871094 L 10.792969 2.503906 L 11.109375 2.605469 Z M 11 1.871094 "/>
<path style=" stroke:none;fill-rule:nonzero;fill:rgb(100%,80%,0%);fill-opacity:1;" d="M 10.609375 3.074219 L 11.148438 2.683594 L 10.953125 2.414062 Z M 10.609375 3.074219 "/>
<path style=" stroke:none;fill-rule:nonzero;fill:rgb(100%,80%,0%);fill-opacity:1;" d="M 10.609375 3.074219 L 10.8125 2.441406 L 11.132812 2.542969 Z M 10.609375 3.074219 "/>
<path style=" stroke:none;fill-rule:nonzero;fill:rgb(100%,80%,0%);fill-opacity:1;" d="M 10.367188 2.328125 L 10.90625 2.722656 L 11.101562 2.453125 Z M 10.367188 2.328125 "/>
<path style=" stroke:none;fill-rule:nonzero;fill:rgb(100%,80%,0%);fill-opacity:1;" d="M 10.367188 2.328125 L 11.03125 2.328125 L 11.03125 2.664062 Z M 10.367188 2.328125 "/>
<path style=" stroke:none;fill-rule:nonzero;fill:rgb(100%,80%,0%);fill-opacity:1;" d="M 12.070312 4.539062 L 12.277344 3.90625 L 12.59375 4.007812 Z M 12.070312 4.539062 "/>
<path style=" stroke:none;fill-rule:nonzero;fill:rgb(100%,80%,0%);fill-opacity:1;" d="M 12.070312 4.539062 L 12.613281 4.148438 L 12.414062 3.878906 Z M 12.070312 4.539062 "/>
<path style=" stroke:none;fill-rule:nonzero;fill:rgb(100%,80%,0%);fill-opacity:1;" d="M 12.855469 4.539062 L 12.316406 4.148438 L 12.511719 3.878906 Z M 12.855469 4.539062 "/>
<path style=" stroke:none;fill-rule:nonzero;fill:rgb(100%,80%,0%);fill-opacity:1;" d="M 12.855469 4.539062 L 12.648438 3.90625 L 12.332031 4.007812 Z M 12.855469 4.539062 "/>
<path style=" stroke:none;fill-rule:nonzero;fill:rgb(100%,80%,0%);fill-opacity:1;" d="M 13.097656 3.792969 L 12.558594 4.1875 L 12.363281 3.917969 Z M 13.097656 3.792969 "/>
<path style=" stroke:none;fill-rule:nonzero;fill:rgb(100%,80%,0%);fill-opacity:1;" d="M 13.097656 3.792969 L 12.429688 3.792969 L 12.429688 4.128906 Z M 13.097656 3.792969 "/>
<path style=" stroke:none;fill-rule:nonzero;fill:rgb(100%,80%,0%);fill-opacity:1;" d="M 11.828125 3.792969 L 12.371094 4.1875 L 12.566406 3.917969 Z M 11.828125 3.792969 "/>
<path style=" stroke:none;fill-rule:nonzero;fill:rgb(100%,80%,0%);fill-opacity:1;" d="M 11.828125 3.792969 L 12.496094 3.792969 L 12.496094 4.128906 Z M 11.828125 3.792969 "/>
<path style=" stroke:none;fill-rule:nonzero;fill:rgb(100%,80%,0%);fill-opacity:1;" d="M 12.464844 3.332031 L 12.257812 3.96875 L 12.574219 4.070312 Z M 12.464844 3.332031 "/>
<path style=" stroke:none;fill-rule:nonzero;fill:rgb(100%,80%,0%);fill-opacity:1;" d="M 12.464844 3.332031 L 12.671875 3.96875 L 12.351562 4.070312 Z M 12.464844 3.332031 "/>
<path style=" stroke:none;fill-rule:nonzero;fill:rgb(100%,80%,0%);fill-opacity:1;" d="M 11.828125 7.792969 L 12.496094 7.792969 L 12.496094 8.128906 Z M 11.828125 7.792969 "/>
<path style=" stroke:none;fill-rule:nonzero;fill:rgb(100%,80%,0%);fill-opacity:1;" d="M 11.828125 7.792969 L 12.371094 8.1875 L 12.566406 7.917969 Z M 11.828125 7.792969 "/>
<path style=" stroke:none;fill-rule:nonzero;fill:rgb(100%,80%,0%);fill-opacity:1;" d="M 12.070312 8.539062 L 12.277344 7.90625 L 12.59375 8.007812 Z M 12.070312 8.539062 "/>
<path style=" stroke:none;fill-rule:nonzero;fill:rgb(100%,80%,0%);fill-opacity:1;" d="M 12.070312 8.539062 L 12.613281 8.148438 L 12.414062 7.878906 Z M 12.070312 8.539062 "/>
<path style=" stroke:none;fill-rule:nonzero;fill:rgb(100%,80%,0%);fill-opacity:1;" d="M 12.855469 8.539062 L 12.316406 8.148438 L 12.511719 7.878906 Z M 12.855469 8.539062 "/>
<path style=" stroke:none;fill-rule:nonzero;fill:rgb(100%,80%,0%);fill-opacity:1;" d="M 12.855469 8.539062 L 12.648438 7.90625 L 12.332031 8.007812 Z M 12.855469 8.539062 "/>
<path style=" stroke:none;fill-rule:nonzero;fill:rgb(100%,80%,0%);fill-opacity:1;" d="M 12.464844 7.332031 L 12.257812 7.96875 L 12.574219 8.070312 Z M 12.464844 7.332031 "/>
<path style=" stroke:none;fill-rule:nonzero;fill:rgb(100%,80%,0%);fill-opacity:1;" d="M 12.464844 7.332031 L 12.671875 7.96875 L 12.351562 8.070312 Z M 12.464844 7.332031 "/>
<path style=" stroke:none;fill-rule:nonzero;fill:rgb(100%,80%,0%);fill-opacity:1;" d="M 13.097656 7.792969 L 12.429688 7.792969 L 12.429688 8.128906 Z M 13.097656 7.792969 "/>
<path style=" stroke:none;fill-rule:nonzero;fill:rgb(100%,80%,0%);fill-opacity:1;" d="M 13.097656 7.792969 L 12.558594 8.1875 L 12.363281 7.917969 Z M 13.097656 7.792969 "/>
<path style=" stroke:none;fill-rule:nonzero;fill:rgb(100%,80%,0%);fill-opacity:1;" d="M 10.367188 9.257812 L 11.03125 9.257812 L 11.03125 9.589844 Z M 10.367188 9.257812 "/>
<path style=" stroke:none;fill-rule:nonzero;fill:rgb(100%,80%,0%);fill-opacity:1;" d="M 10.367188 9.257812 L 10.90625 9.648438 L 11.101562 9.378906 Z M 10.367188 9.257812 "/>
<path style=" stroke:none;fill-rule:nonzero;fill:rgb(100%,80%,0%);fill-opacity:1;" d="M 10.609375 10.003906 L 10.8125 9.371094 L 11.132812 9.472656 Z M 10.609375 10.003906 "/>
<path style=" stroke:none;fill-rule:nonzero;fill:rgb(100%,80%,0%);fill-opacity:1;" d="M 10.609375 10.003906 L 11.148438 9.613281 L 10.953125 9.34375 Z M 10.609375 10.003906 "/>
<path style=" stroke:none;fill-rule:nonzero;fill:rgb(100%,80%,0%);fill-opacity:1;" d="M 11.390625 10.003906 L 10.851562 9.613281 L 11.046875 9.34375 Z M 11.390625 10.003906 "/>
<path style=" stroke:none;fill-rule:nonzero;fill:rgb(100%,80%,0%);fill-opacity:1;" d="M 11.390625 10.003906 L 11.1875 9.371094 L 10.867188 9.472656 Z M 11.390625 10.003906 "/>
<path style=" stroke:none;fill-rule:nonzero;fill:rgb(100%,80%,0%);fill-opacity:1;" d="M 11 8.796875 L 10.792969 9.429688 L 11.109375 9.535156 Z M 11 8.796875 "/>
<path style=" stroke:none;fill-rule:nonzero;fill:rgb(100%,80%,0%);fill-opacity:1;" d="M 11 8.796875 L 11.207031 9.429688 L 10.890625 9.535156 Z M 11 8.796875 "/>
<path style=" stroke:none;fill-rule:nonzero;fill:rgb(100%,80%,0%);fill-opacity:1;" d="M 11.632812 9.257812 L 10.96875 9.257812 L 10.96875 9.589844 Z M 11.632812 9.257812 "/>
<path style=" stroke:none;fill-rule:nonzero;fill:rgb(100%,80%,0%);fill-opacity:1;" d="M 11.632812 9.257812 L 11.09375 9.648438 L 10.898438 9.378906 Z M 11.632812 9.257812 "/>
</g>
</svg>
